<svg viewBox="0 0 48 48" fill="none" xmlns="http://www.w3.org/2000/svg">
  <rect width="48" height="48" rx="14" fill="#06111F"/>
  <rect x="0.75" y="0.75" width="46.5" height="46.5" rx="13.25" stroke="url(#stratos-border)" stroke-opacity="0.64" stroke-width="1.5"/>
  <path d="M14.2 31.2C11.5 24.8 14.1 17.2 20.4 13.7C26.7 10.1 34.4 11.9 38.4 17.4" stroke="#0E8FB4" stroke-width="2.6" stroke-linecap="round"/>
  <path d="M18.2 13.1C17.5 21.4 22.4 29.4 30.2 32.2" stroke="#55C7EC" stroke-width="4.2" stroke-linecap="round"/>
  <path d="M12.5 21.8C18.1 28.2 26.4 31.4 35.2 30.3" stroke="#2FB8E3" stroke-width="4.2" stroke-linecap="round"/>
  <path d="M16.2 17.5C21.1 23 28.4 25.8 37.2 25.1" stroke="#86E6FF" stroke-width="2.8" stroke-linecap="round"/>
  <path d="M20.8 10.4C21.7 19.7 27.3 26.8 37.8 29.9" stroke="#67E8F9" stroke-opacity="0.78" stroke-width="2.4" stroke-linecap="round"/>
  <path d="M26.5 17.6C32.2 16.8 38.6 17.9 43 20.5" stroke="#7DD3FC" stroke-width="1.5" stroke-linecap="round"/>
  <defs>
    <linearGradient id="stratos-border" x1="5" y1="4" x2="43" y2="44" gradientUnits="userSpaceOnUse">
      <stop stop-color="#67E8F9"/>
      <stop offset="1" stop-color="#34D399"/>
    </linearGradient>
  </defs>
</svg>
